<mxfile host="app.diagrams.net" modified="2024-03-26T05:11:11.568Z" agent="Mozilla/5.0 (Windows NT 10.0; Win64; x64) AppleWebKit/537.36 (KHTML, like Gecko) Chrome/122.0.0.0 Safari/537.36" etag="8m0NPt8SNSBOLMNSlD7_" version="24.1.0" type="github">
  <diagram name="Page-1" id="UPTNPOhUaetWwT-Zzmnl">
    <mxGraphModel dx="794" dy="923" grid="0" gridSize="10" guides="1" tooltips="1" connect="1" arrows="1" fold="1" page="0" pageScale="1" pageWidth="850" pageHeight="1100" math="0" shadow="0">
      <root>
        <mxCell id="0" />
        <mxCell id="1" parent="0" />
        <mxCell id="GNszNpCyyo_Y6eJy_8Zi-1" value="&lt;p style=&quot;text-align:center;&quot; align=&quot;center&quot; class=&quot;MsoNormal&quot;&gt;&lt;span style=&quot;mso-spacerun:&#39;yes&#39;;font-family:&#39;Times New Roman&#39;;mso-fareast-font-family:SimSun;&#xa;color:rgb(255,255,255);font-size:11.0000pt;&quot;&gt;Preprocessing&lt;/span&gt;&lt;span style=&quot;mso-spacerun:&#39;yes&#39;;font-family:&#39;Times New Roman&#39;;mso-fareast-font-family:SimSun;&#xa;color:rgb(255,255,255);font-size:11.0000pt;&quot;&gt;&lt;/span&gt;&lt;/p&gt;" style="rounded=0;whiteSpace=wrap;html=1;" vertex="1" parent="1">
          <mxGeometry x="131.5" y="-4" width="189" height="60" as="geometry" />
        </mxCell>
        <mxCell id="GNszNpCyyo_Y6eJy_8Zi-2" value="&lt;p style=&quot;text-align:center;&quot; align=&quot;center&quot; class=&quot;MsoNormal&quot;&gt;&lt;span style=&quot;mso-spacerun:&#39;yes&#39;;font-family:&#39;Times New Roman&#39;;mso-fareast-font-family:SimSun;&#xa;color:rgb(255,255,255);font-size:11.0000pt;&quot;&gt;Training dataset&lt;/span&gt;&lt;span style=&quot;mso-spacerun:&#39;yes&#39;;font-family:&#39;Times New Roman&#39;;mso-fareast-font-family:SimSun;&#xa;color:rgb(255,255,255);font-size:11.0000pt;&quot;&gt;&lt;/span&gt;&lt;/p&gt;" style="rounded=0;whiteSpace=wrap;html=1;" vertex="1" parent="1">
          <mxGeometry x="131.5" y="156" width="189" height="60" as="geometry" />
        </mxCell>
        <mxCell id="GNszNpCyyo_Y6eJy_8Zi-3" value="&lt;p style=&quot;text-align:center;&quot; align=&quot;center&quot; class=&quot;MsoNormal&quot;&gt;&lt;span style=&quot;mso-spacerun:&#39;yes&#39;;font-family:&#39;Times New Roman&#39;;mso-fareast-font-family:SimSun;&#xa;color:rgb(255,255,255);font-size:11.0000pt;&quot;&gt;&amp;nbsp;Feature Extraction&lt;/span&gt;&lt;span style=&quot;mso-spacerun:&#39;yes&#39;;font-family:&#39;Times New Roman&#39;;mso-fareast-font-family:SimSun;&#xa;color:rgb(255,255,255);font-size:11.0000pt;&quot;&gt;&lt;/span&gt;&lt;/p&gt;" style="rounded=0;whiteSpace=wrap;html=1;" vertex="1" parent="1">
          <mxGeometry x="127.5" y="316" width="193" height="60" as="geometry" />
        </mxCell>
        <mxCell id="GNszNpCyyo_Y6eJy_8Zi-4" value="&lt;p style=&quot;text-align:center;&quot; align=&quot;center&quot; class=&quot;MsoNormal&quot;&gt;&lt;span style=&quot;mso-spacerun:&#39;yes&#39;;font-family:&#39;Times New Roman&#39;;mso-fareast-font-family:SimSun;&#xa;color:rgb(255,255,255);font-size:11.0000pt;&quot;&gt;Prediction/regression&lt;/span&gt;&lt;span style=&quot;mso-spacerun:&#39;yes&#39;;font-family:&#39;Times New Roman&#39;;mso-fareast-font-family:SimSun;&#xa;color:rgb(255,255,255);font-size:11.0000pt;&quot;&gt;&lt;/span&gt;&lt;/p&gt;" style="rounded=0;whiteSpace=wrap;html=1;" vertex="1" parent="1">
          <mxGeometry x="123.5" y="478" width="193" height="60" as="geometry" />
        </mxCell>
        <mxCell id="GNszNpCyyo_Y6eJy_8Zi-5" value="&lt;p style=&quot;text-align:center;&quot; align=&quot;center&quot; class=&quot;MsoNormal&quot;&gt;&lt;span style=&quot;mso-spacerun:&#39;yes&#39;;font-family:&#39;Times New Roman&#39;;mso-fareast-font-family:SimSun;&#xa;color:rgb(255,255,255);font-size:11.0000pt;&quot;&gt;Predicted Iris&lt;/span&gt;&lt;span style=&quot;mso-spacerun:&#39;yes&#39;;font-family:&#39;Times New Roman&#39;;mso-fareast-font-family:SimSun;&#xa;color:rgb(255,255,255);font-size:11.0000pt;&quot;&gt;&lt;/span&gt;&lt;/p&gt;" style="rounded=0;whiteSpace=wrap;html=1;" vertex="1" parent="1">
          <mxGeometry x="158" y="641" width="120" height="88" as="geometry" />
        </mxCell>
        <mxCell id="GNszNpCyyo_Y6eJy_8Zi-6" value="&lt;p style=&quot;text-align:center;&quot; align=&quot;center&quot; class=&quot;MsoNormal&quot;&gt;&lt;span style=&quot;mso-spacerun:&#39;yes&#39;;font-family:&#39;Times New Roman&#39;;mso-fareast-font-family:SimSun;&#xa;color:rgb(255,255,255);font-size:11.0000pt;&quot;&gt;Input data&lt;/span&gt;&lt;span style=&quot;mso-spacerun:&#39;yes&#39;;font-family:&#39;Times New Roman&#39;;mso-fareast-font-family:SimSun;&#xa;color:rgb(255,255,255);font-size:11.0000pt;&quot;&gt;&lt;/span&gt;&lt;/p&gt;" style="rounded=0;whiteSpace=wrap;html=1;" vertex="1" parent="1">
          <mxGeometry x="135" y="-164" width="189" height="60" as="geometry" />
        </mxCell>
        <mxCell id="GNszNpCyyo_Y6eJy_8Zi-7" value="&lt;p style=&quot;text-align:center;&quot; align=&quot;center&quot; class=&quot;MsoNormal&quot;&gt;&lt;span style=&quot;mso-spacerun:&#39;yes&#39;;font-family:&#39;Times New Roman&#39;;mso-fareast-font-family:SimSun;&#xa;color:rgb(255,255,255);font-size:11.0000pt;&quot;&gt;Testing Data&lt;/span&gt;&lt;span style=&quot;mso-spacerun:&#39;yes&#39;;font-family:&#39;Times New Roman&#39;;mso-fareast-font-family:SimSun;&#xa;color:rgb(255,255,255);font-size:11.0000pt;&quot;&gt;&lt;/span&gt;&lt;/p&gt;" style="rounded=0;whiteSpace=wrap;html=1;" vertex="1" parent="1">
          <mxGeometry x="420.5" y="316" width="149" height="60" as="geometry" />
        </mxCell>
        <mxCell id="GNszNpCyyo_Y6eJy_8Zi-10" value="" style="verticalLabelPosition=bottom;verticalAlign=top;html=1;strokeWidth=2;shape=mxgraph.arrows2.arrow;dy=0.6;dx=40;notch=0;direction=south;" vertex="1" parent="1">
          <mxGeometry x="191" y="-104" width="70" height="100" as="geometry" />
        </mxCell>
        <mxCell id="GNszNpCyyo_Y6eJy_8Zi-11" value="" style="verticalLabelPosition=bottom;verticalAlign=top;html=1;strokeWidth=2;shape=mxgraph.arrows2.arrow;dy=0.6;dx=40;notch=0;direction=south;" vertex="1" parent="1">
          <mxGeometry x="191" y="56" width="70" height="100" as="geometry" />
        </mxCell>
        <mxCell id="GNszNpCyyo_Y6eJy_8Zi-12" value="" style="verticalLabelPosition=bottom;verticalAlign=top;html=1;strokeWidth=2;shape=mxgraph.arrows2.arrow;dy=0.6;dx=40;notch=0;direction=south;" vertex="1" parent="1">
          <mxGeometry x="185" y="216" width="70" height="100" as="geometry" />
        </mxCell>
        <mxCell id="GNszNpCyyo_Y6eJy_8Zi-13" value="" style="verticalLabelPosition=bottom;verticalAlign=top;html=1;strokeWidth=2;shape=mxgraph.arrows2.arrow;dy=0.6;dx=40;notch=0;direction=south;" vertex="1" parent="1">
          <mxGeometry x="185" y="378" width="70" height="100" as="geometry" />
        </mxCell>
        <mxCell id="GNszNpCyyo_Y6eJy_8Zi-15" value="" style="verticalLabelPosition=bottom;verticalAlign=top;html=1;strokeWidth=2;shape=mxgraph.arrows2.arrow;dy=0.6;dx=40;notch=0;direction=south;" vertex="1" parent="1">
          <mxGeometry x="183" y="538" width="70" height="100" as="geometry" />
        </mxCell>
        <mxCell id="GNszNpCyyo_Y6eJy_8Zi-16" value="" style="verticalLabelPosition=bottom;verticalAlign=top;html=1;strokeWidth=2;shape=mxgraph.arrows2.arrow;dy=0.6;dx=40;notch=0;" vertex="1" parent="1">
          <mxGeometry x="320.5" y="311" width="100" height="70" as="geometry" />
        </mxCell>
      </root>
    </mxGraphModel>
  </diagram>
</mxfile>
